<?xml version="1.0" standalone="no"?>
<!DOCTYPE svg PUBLIC "-//W3C//DTD SVG 20010904//EN"
 "http://www.w3.org/TR/2001/REC-SVG-20010904/DTD/svg10.dtd">
<svg version="1.0" xmlns="http://www.w3.org/2000/svg"
 width="512.000000pt" height="512.000000pt" viewBox="0 0 512.000000 512.000000"
 preserveAspectRatio="xMidYMid meet">

<g transform="translate(0.000000,512.000000) scale(0.100000,-0.100000)"
fill="#000000" stroke="none">
<path d="M361 4944 c-169 -45 -301 -180 -346 -351 -23 -86 -23 -3980 0 -4066
45 -173 178 -307 350 -352 52 -13 309 -15 2195 -15 2330 0 2184 -4 2302 56 71
36 159 123 197 193 65 123 61 -25 61 2151 0 1742 -2 1983 -15 2035 -45 172
-179 305 -352 350 -85 22 -4309 21 -4392 -1z m4365 -330 c15 -11 37 -33 48
-48 20 -27 21 -41 24 -457 l3 -429 -2241 0 -2241 0 3 428 3 429 29 37 c16 21
43 44 60 52 26 11 382 13 2158 11 l2127 -2 27 -21z m72 -2643 c-3 -1386 -3
-1390 -24 -1417 -11 -15 -33 -37 -48 -48 l-27 -21 -2139 0 -2139 0 -27 21
c-15 11 -37 33 -48 48 -21 27 -21 31 -24 1417 l-2 1389 2240 0 2240 0 -2
-1389z"/>
<path d="M735 4306 c-101 -44 -125 -178 -46 -257 112 -113 296 -12 267 146
-18 94 -131 151 -221 111z"/>
<path d="M1215 4306 c-101 -44 -125 -178 -46 -257 112 -113 296 -12 267 146
-18 94 -131 151 -221 111z"/>
<path d="M1695 4306 c-101 -44 -125 -178 -46 -257 112 -113 296 -12 267 146
-18 94 -131 151 -221 111z"/>
<path d="M1055 2866 c-41 -18 -83 -69 -90 -109 -3 -18 -5 -279 -3 -582 3 -473
6 -558 20 -605 65 -218 173 -368 345 -480 136 -89 259 -125 433 -125 174 0
297 36 433 125 174 113 285 269 345 485 15 53 17 129 17 632 0 562 0 572 -21
599 -39 53 -71 69 -134 69 -63 0 -95 -16 -134 -69 -20 -27 -21 -41 -26 -589
-5 -546 -6 -563 -27 -614 -34 -85 -67 -135 -125 -190 -187 -176 -469 -176
-656 0 -58 55 -91 105 -125 190 -21 51 -22 68 -27 614 -5 548 -6 562 -26 589
-11 15 -32 37 -46 47 -33 25 -113 32 -153 13z"/>
<path d="M2975 2866 c-65 -28 -105 -107 -91 -177 3 -17 105 -196 227 -400
l222 -369 -223 -371 c-152 -254 -224 -383 -227 -409 -19 -139 149 -234 255
-145 16 13 107 155 203 314 95 160 176 291 179 291 3 0 84 -131 179 -291 96
-159 187 -301 203 -314 106 -89 274 6 255 145 -3 26 -75 155 -227 409 l-223
371 223 371 c152 254 224 383 227 409 19 139 -149 234 -255 145 -16 -13 -107
-155 -203 -314 -95 -160 -176 -291 -179 -291 -3 0 -83 130 -178 289 -96 159
-183 298 -195 309 -45 42 -115 53 -172 28z"/>
</g>
</svg>
